<?xml version="1.0" encoding="utf-8"?>
<svg xmlns="http://www.w3.org/2000/svg" xmlns:xlink="http://www.w3.org/1999/xlink" width="600" height="400" viewBox="0 0 2400 1600">
<defs>
  <clipPath id="clip720">
    <rect x="0" y="0" width="2400" height="1600"/>
  </clipPath>
</defs>
<path clip-path="url(#clip720)" d="
M0 1600 L2400 1600 L2400 0 L0 0  Z
  " fill="#ffffff" fill-rule="evenodd" fill-opacity="1"/>
<defs>
  <clipPath id="clip721">
    <rect x="480" y="0" width="1681" height="1600"/>
  </clipPath>
</defs>
<defs>
  <clipPath id="clip722">
    <rect x="235" y="47" width="2118" height="1377"/>
  </clipPath>
</defs>
<path clip-path="url(#clip720)" d="
M235.283 1423.18 L2352.76 1423.18 L2352.76 47.2441 L235.283 47.2441  Z
  " fill="#ffffff" fill-rule="evenodd" fill-opacity="1"/>
<polyline clip-path="url(#clip722)" style="stroke:#000000; stroke-linecap:butt; stroke-linejoin:round; stroke-width:2; stroke-opacity:0.1; fill:none" points="
  295.211,1423.18 295.211,47.2441 
  "/>
<polyline clip-path="url(#clip722)" style="stroke:#000000; stroke-linecap:butt; stroke-linejoin:round; stroke-width:2; stroke-opacity:0.1; fill:none" points="
  702.888,1423.18 702.888,47.2441 
  "/>
<polyline clip-path="url(#clip722)" style="stroke:#000000; stroke-linecap:butt; stroke-linejoin:round; stroke-width:2; stroke-opacity:0.1; fill:none" points="
  1110.56,1423.18 1110.56,47.2441 
  "/>
<polyline clip-path="url(#clip722)" style="stroke:#000000; stroke-linecap:butt; stroke-linejoin:round; stroke-width:2; stroke-opacity:0.1; fill:none" points="
  1518.24,1423.18 1518.24,47.2441 
  "/>
<polyline clip-path="url(#clip722)" style="stroke:#000000; stroke-linecap:butt; stroke-linejoin:round; stroke-width:2; stroke-opacity:0.1; fill:none" points="
  1925.92,1423.18 1925.92,47.2441 
  "/>
<polyline clip-path="url(#clip722)" style="stroke:#000000; stroke-linecap:butt; stroke-linejoin:round; stroke-width:2; stroke-opacity:0.1; fill:none" points="
  2333.6,1423.18 2333.6,47.2441 
  "/>
<polyline clip-path="url(#clip720)" style="stroke:#000000; stroke-linecap:butt; stroke-linejoin:round; stroke-width:4; stroke-opacity:1; fill:none" points="
  235.283,1423.18 2352.76,1423.18 
  "/>
<polyline clip-path="url(#clip720)" style="stroke:#000000; stroke-linecap:butt; stroke-linejoin:round; stroke-width:4; stroke-opacity:1; fill:none" points="
  295.211,1423.18 295.211,1404.28 
  "/>
<polyline clip-path="url(#clip720)" style="stroke:#000000; stroke-linecap:butt; stroke-linejoin:round; stroke-width:4; stroke-opacity:1; fill:none" points="
  702.888,1423.18 702.888,1404.28 
  "/>
<polyline clip-path="url(#clip720)" style="stroke:#000000; stroke-linecap:butt; stroke-linejoin:round; stroke-width:4; stroke-opacity:1; fill:none" points="
  1110.56,1423.18 1110.56,1404.28 
  "/>
<polyline clip-path="url(#clip720)" style="stroke:#000000; stroke-linecap:butt; stroke-linejoin:round; stroke-width:4; stroke-opacity:1; fill:none" points="
  1518.24,1423.18 1518.24,1404.28 
  "/>
<polyline clip-path="url(#clip720)" style="stroke:#000000; stroke-linecap:butt; stroke-linejoin:round; stroke-width:4; stroke-opacity:1; fill:none" points="
  1925.92,1423.18 1925.92,1404.28 
  "/>
<polyline clip-path="url(#clip720)" style="stroke:#000000; stroke-linecap:butt; stroke-linejoin:round; stroke-width:4; stroke-opacity:1; fill:none" points="
  2333.6,1423.18 2333.6,1404.28 
  "/>
<path clip-path="url(#clip720)" d="M295.211 1454.1 Q291.6 1454.1 289.772 1457.66 Q287.966 1461.2 287.966 1468.33 Q287.966 1475.44 289.772 1479.01 Q291.6 1482.55 295.211 1482.55 Q298.846 1482.55 300.651 1479.01 Q302.48 1475.44 302.48 1468.33 Q302.48 1461.2 300.651 1457.66 Q298.846 1454.1 295.211 1454.1 M295.211 1450.39 Q301.021 1450.39 304.077 1455 Q307.156 1459.58 307.156 1468.33 Q307.156 1477.06 304.077 1481.67 Q301.021 1486.25 295.211 1486.25 Q289.401 1486.25 286.322 1481.67 Q283.267 1477.06 283.267 1468.33 Q283.267 1459.58 286.322 1455 Q289.401 1450.39 295.211 1450.39 Z" fill="#000000" fill-rule="evenodd" fill-opacity="1" /><path clip-path="url(#clip720)" d="M677.576 1481.64 L685.215 1481.64 L685.215 1455.28 L676.904 1456.95 L676.904 1452.69 L685.168 1451.02 L689.844 1451.02 L689.844 1481.64 L697.483 1481.64 L697.483 1485.58 L677.576 1485.58 L677.576 1481.64 Z" fill="#000000" fill-rule="evenodd" fill-opacity="1" /><path clip-path="url(#clip720)" d="M716.927 1454.1 Q713.316 1454.1 711.488 1457.66 Q709.682 1461.2 709.682 1468.33 Q709.682 1475.44 711.488 1479.01 Q713.316 1482.55 716.927 1482.55 Q720.562 1482.55 722.367 1479.01 Q724.196 1475.44 724.196 1468.33 Q724.196 1461.2 722.367 1457.66 Q720.562 1454.1 716.927 1454.1 M716.927 1450.39 Q722.738 1450.39 725.793 1455 Q728.872 1459.58 728.872 1468.33 Q728.872 1477.06 725.793 1481.67 Q722.738 1486.25 716.927 1486.25 Q711.117 1486.25 708.039 1481.67 Q704.983 1477.06 704.983 1468.33 Q704.983 1459.58 708.039 1455 Q711.117 1450.39 716.927 1450.39 Z" fill="#000000" fill-rule="evenodd" fill-opacity="1" /><path clip-path="url(#clip720)" d="M1089.34 1481.64 L1105.66 1481.64 L1105.66 1485.58 L1083.71 1485.58 L1083.71 1481.64 Q1086.38 1478.89 1090.96 1474.26 Q1095.56 1469.61 1096.75 1468.27 Q1098.99 1465.74 1099.87 1464.01 Q1100.77 1462.25 1100.77 1460.56 Q1100.77 1457.8 1098.83 1456.07 Q1096.91 1454.33 1093.81 1454.33 Q1091.61 1454.33 1089.15 1455.09 Q1086.72 1455.86 1083.94 1457.41 L1083.94 1452.69 Q1086.77 1451.55 1089.22 1450.97 Q1091.68 1450.39 1093.71 1450.39 Q1099.08 1450.39 1102.28 1453.08 Q1105.47 1455.77 1105.47 1460.26 Q1105.47 1462.39 1104.66 1464.31 Q1103.88 1466.2 1101.77 1468.8 Q1101.19 1469.47 1098.09 1472.69 Q1094.99 1475.88 1089.34 1481.64 Z" fill="#000000" fill-rule="evenodd" fill-opacity="1" /><path clip-path="url(#clip720)" d="M1125.47 1454.1 Q1121.86 1454.1 1120.03 1457.66 Q1118.23 1461.2 1118.23 1468.33 Q1118.23 1475.44 1120.03 1479.01 Q1121.86 1482.55 1125.47 1482.55 Q1129.11 1482.55 1130.91 1479.01 Q1132.74 1475.44 1132.74 1468.33 Q1132.74 1461.2 1130.91 1457.66 Q1129.11 1454.1 1125.47 1454.1 M1125.47 1450.39 Q1131.28 1450.39 1134.34 1455 Q1137.42 1459.58 1137.42 1468.33 Q1137.42 1477.06 1134.34 1481.67 Q1131.28 1486.25 1125.47 1486.25 Q1119.66 1486.25 1116.58 1481.67 Q1113.53 1477.06 1113.53 1468.33 Q1113.53 1459.58 1116.58 1455 Q1119.66 1450.39 1125.47 1450.39 Z" fill="#000000" fill-rule="evenodd" fill-opacity="1" /><path clip-path="url(#clip720)" d="M1507.08 1466.95 Q1510.44 1467.66 1512.32 1469.93 Q1514.21 1472.2 1514.21 1475.53 Q1514.21 1480.65 1510.7 1483.45 Q1507.18 1486.25 1500.7 1486.25 Q1498.52 1486.25 1496.2 1485.81 Q1493.91 1485.39 1491.46 1484.54 L1491.46 1480.02 Q1493.4 1481.16 1495.72 1481.74 Q1498.03 1482.32 1500.56 1482.32 Q1504.95 1482.32 1507.25 1480.58 Q1509.56 1478.84 1509.56 1475.53 Q1509.56 1472.48 1507.41 1470.77 Q1505.28 1469.03 1501.46 1469.03 L1497.43 1469.03 L1497.43 1465.19 L1501.64 1465.19 Q1505.09 1465.19 1506.92 1463.82 Q1508.75 1462.43 1508.75 1459.84 Q1508.75 1457.18 1506.85 1455.77 Q1504.98 1454.33 1501.46 1454.33 Q1499.54 1454.33 1497.34 1454.75 Q1495.14 1455.16 1492.5 1456.04 L1492.5 1451.88 Q1495.16 1451.14 1497.48 1450.77 Q1499.82 1450.39 1501.88 1450.39 Q1507.2 1450.39 1510.3 1452.83 Q1513.4 1455.23 1513.4 1459.35 Q1513.4 1462.22 1511.76 1464.21 Q1510.12 1466.18 1507.08 1466.95 Z" fill="#000000" fill-rule="evenodd" fill-opacity="1" /><path clip-path="url(#clip720)" d="M1533.08 1454.1 Q1529.47 1454.1 1527.64 1457.66 Q1525.83 1461.2 1525.83 1468.33 Q1525.83 1475.44 1527.64 1479.01 Q1529.47 1482.55 1533.08 1482.55 Q1536.71 1482.55 1538.52 1479.01 Q1540.35 1475.44 1540.35 1468.33 Q1540.35 1461.2 1538.52 1457.66 Q1536.71 1454.1 1533.08 1454.1 M1533.08 1450.39 Q1538.89 1450.39 1541.95 1455 Q1545.02 1459.58 1545.02 1468.33 Q1545.02 1477.06 1541.95 1481.67 Q1538.89 1486.25 1533.08 1486.25 Q1527.27 1486.25 1524.19 1481.67 Q1521.14 1477.06 1521.14 1468.33 Q1521.14 1459.58 1524.19 1455 Q1527.27 1450.39 1533.08 1450.39 Z" fill="#000000" fill-rule="evenodd" fill-opacity="1" /><path clip-path="url(#clip720)" d="M1914.09 1455.09 L1902.28 1473.54 L1914.09 1473.54 L1914.09 1455.09 M1912.86 1451.02 L1918.74 1451.02 L1918.74 1473.54 L1923.67 1473.54 L1923.67 1477.43 L1918.74 1477.43 L1918.74 1485.58 L1914.09 1485.58 L1914.09 1477.43 L1898.49 1477.43 L1898.49 1472.92 L1912.86 1451.02 Z" fill="#000000" fill-rule="evenodd" fill-opacity="1" /><path clip-path="url(#clip720)" d="M1941.4 1454.1 Q1937.79 1454.1 1935.96 1457.66 Q1934.16 1461.2 1934.16 1468.33 Q1934.16 1475.44 1935.96 1479.01 Q1937.79 1482.55 1941.4 1482.55 Q1945.04 1482.55 1946.84 1479.01 Q1948.67 1475.44 1948.67 1468.33 Q1948.67 1461.2 1946.84 1457.66 Q1945.04 1454.1 1941.4 1454.1 M1941.4 1450.39 Q1947.21 1450.39 1950.27 1455 Q1953.35 1459.58 1953.35 1468.33 Q1953.35 1477.06 1950.27 1481.67 Q1947.21 1486.25 1941.4 1486.25 Q1935.59 1486.25 1932.52 1481.67 Q1929.46 1477.06 1929.46 1468.33 Q1929.46 1459.58 1932.52 1455 Q1935.59 1450.39 1941.4 1450.39 Z" fill="#000000" fill-rule="evenodd" fill-opacity="1" /><path clip-path="url(#clip720)" d="M2308.29 1451.02 L2326.65 1451.02 L2326.65 1454.96 L2312.58 1454.96 L2312.58 1463.43 Q2313.6 1463.08 2314.61 1462.92 Q2315.63 1462.73 2316.65 1462.73 Q2322.44 1462.73 2325.82 1465.9 Q2329.2 1469.08 2329.2 1474.49 Q2329.2 1480.07 2325.72 1483.17 Q2322.25 1486.25 2315.93 1486.25 Q2313.76 1486.25 2311.49 1485.88 Q2309.24 1485.51 2306.84 1484.77 L2306.84 1480.07 Q2308.92 1481.2 2311.14 1481.76 Q2313.36 1482.32 2315.84 1482.32 Q2319.85 1482.32 2322.18 1480.21 Q2324.52 1478.1 2324.52 1474.49 Q2324.52 1470.88 2322.18 1468.77 Q2319.85 1466.67 2315.84 1466.67 Q2313.97 1466.67 2312.09 1467.08 Q2310.24 1467.5 2308.29 1468.38 L2308.29 1451.02 Z" fill="#000000" fill-rule="evenodd" fill-opacity="1" /><path clip-path="url(#clip720)" d="M2348.41 1454.1 Q2344.8 1454.1 2342.97 1457.66 Q2341.16 1461.2 2341.16 1468.33 Q2341.16 1475.44 2342.97 1479.01 Q2344.8 1482.55 2348.41 1482.55 Q2352.04 1482.55 2353.85 1479.01 Q2355.68 1475.44 2355.68 1468.33 Q2355.68 1461.2 2353.85 1457.66 Q2352.04 1454.1 2348.41 1454.1 M2348.41 1450.39 Q2354.22 1450.39 2357.28 1455 Q2360.35 1459.58 2360.35 1468.33 Q2360.35 1477.06 2357.28 1481.67 Q2354.22 1486.25 2348.41 1486.25 Q2342.6 1486.25 2339.52 1481.67 Q2336.47 1477.06 2336.47 1468.33 Q2336.47 1459.58 2339.52 1455 Q2342.6 1450.39 2348.41 1450.39 Z" fill="#000000" fill-rule="evenodd" fill-opacity="1" /><path clip-path="url(#clip720)" d="M1302.49 1548.54 Q1302.49 1549.45 1302.07 1549.67 Q1301.65 1549.87 1300.49 1549.87 L1294.31 1549.87 L1289.41 1569.32 Q1289.03 1571.02 1289.03 1572.47 Q1289.03 1574.08 1289.51 1574.79 Q1290.03 1575.5 1291.09 1575.5 Q1293.18 1575.5 1295.44 1573.6 Q1297.72 1571.7 1299.66 1567.06 Q1299.91 1566.45 1300.04 1566.32 Q1300.2 1566.16 1300.62 1566.16 Q1301.43 1566.16 1301.43 1566.81 Q1301.43 1567.03 1300.98 1568.06 Q1300.56 1569.09 1299.62 1570.61 Q1298.72 1572.12 1297.53 1573.54 Q1296.37 1574.95 1294.6 1575.98 Q1292.83 1576.98 1290.93 1576.98 Q1288.26 1576.98 1286.55 1575.28 Q1284.87 1573.57 1284.87 1570.9 Q1284.87 1570.03 1285.55 1567.26 Q1286.23 1564.45 1289.9 1549.87 L1284.07 1549.87 Q1283.26 1549.87 1282.94 1549.83 Q1282.65 1549.8 1282.43 1549.64 Q1282.23 1549.45 1282.23 1549.06 Q1282.23 1548.45 1282.49 1548.19 Q1282.75 1547.9 1283.07 1547.87 Q1283.42 1547.8 1284.23 1547.8 L1290.41 1547.8 L1292.99 1537.34 Q1293.25 1536.31 1293.89 1535.73 Q1294.57 1535.12 1294.95 1535.05 Q1295.34 1534.95 1295.63 1534.95 Q1296.5 1534.95 1297.02 1535.44 Q1297.53 1535.89 1297.53 1536.73 Q1297.53 1537.18 1294.83 1547.8 L1300.62 1547.8 Q1301.36 1547.8 1301.65 1547.84 Q1301.98 1547.87 1302.23 1548.03 Q1302.49 1548.19 1302.49 1548.54 Z" fill="#000000" fill-rule="evenodd" fill-opacity="1" /><polyline clip-path="url(#clip722)" style="stroke:#000000; stroke-linecap:butt; stroke-linejoin:round; stroke-width:2; stroke-opacity:0.1; fill:none" points="
  235.283,1397.76 2352.76,1397.76 
  "/>
<polyline clip-path="url(#clip722)" style="stroke:#000000; stroke-linecap:butt; stroke-linejoin:round; stroke-width:2; stroke-opacity:0.1; fill:none" points="
  235.283,1127.33 2352.76,1127.33 
  "/>
<polyline clip-path="url(#clip722)" style="stroke:#000000; stroke-linecap:butt; stroke-linejoin:round; stroke-width:2; stroke-opacity:0.1; fill:none" points="
  235.283,856.904 2352.76,856.904 
  "/>
<polyline clip-path="url(#clip722)" style="stroke:#000000; stroke-linecap:butt; stroke-linejoin:round; stroke-width:2; stroke-opacity:0.1; fill:none" points="
  235.283,586.477 2352.76,586.477 
  "/>
<polyline clip-path="url(#clip722)" style="stroke:#000000; stroke-linecap:butt; stroke-linejoin:round; stroke-width:2; stroke-opacity:0.1; fill:none" points="
  235.283,316.049 2352.76,316.049 
  "/>
<polyline clip-path="url(#clip720)" style="stroke:#000000; stroke-linecap:butt; stroke-linejoin:round; stroke-width:4; stroke-opacity:1; fill:none" points="
  235.283,1423.18 235.283,47.2441 
  "/>
<polyline clip-path="url(#clip720)" style="stroke:#000000; stroke-linecap:butt; stroke-linejoin:round; stroke-width:4; stroke-opacity:1; fill:none" points="
  235.283,1397.76 254.18,1397.76 
  "/>
<polyline clip-path="url(#clip720)" style="stroke:#000000; stroke-linecap:butt; stroke-linejoin:round; stroke-width:4; stroke-opacity:1; fill:none" points="
  235.283,1127.33 254.18,1127.33 
  "/>
<polyline clip-path="url(#clip720)" style="stroke:#000000; stroke-linecap:butt; stroke-linejoin:round; stroke-width:4; stroke-opacity:1; fill:none" points="
  235.283,856.904 254.18,856.904 
  "/>
<polyline clip-path="url(#clip720)" style="stroke:#000000; stroke-linecap:butt; stroke-linejoin:round; stroke-width:4; stroke-opacity:1; fill:none" points="
  235.283,586.477 254.18,586.477 
  "/>
<polyline clip-path="url(#clip720)" style="stroke:#000000; stroke-linecap:butt; stroke-linejoin:round; stroke-width:4; stroke-opacity:1; fill:none" points="
  235.283,316.049 254.18,316.049 
  "/>
<path clip-path="url(#clip720)" d="M187.338 1383.56 Q183.727 1383.56 181.899 1387.12 Q180.093 1390.66 180.093 1397.79 Q180.093 1404.9 181.899 1408.47 Q183.727 1412.01 187.338 1412.01 Q190.973 1412.01 192.778 1408.47 Q194.607 1404.9 194.607 1397.79 Q194.607 1390.66 192.778 1387.12 Q190.973 1383.56 187.338 1383.56 M187.338 1379.85 Q193.149 1379.85 196.204 1384.46 Q199.283 1389.04 199.283 1397.79 Q199.283 1406.52 196.204 1411.13 Q193.149 1415.71 187.338 1415.71 Q181.528 1415.71 178.45 1411.13 Q175.394 1406.52 175.394 1397.79 Q175.394 1389.04 178.45 1384.46 Q181.528 1379.85 187.338 1379.85 Z" fill="#000000" fill-rule="evenodd" fill-opacity="1" /><path clip-path="url(#clip720)" d="M121.043 1140.68 L137.362 1140.68 L137.362 1144.61 L115.418 1144.61 L115.418 1140.68 Q118.08 1137.92 122.663 1133.29 Q127.269 1128.64 128.45 1127.3 Q130.695 1124.77 131.575 1123.04 Q132.478 1121.28 132.478 1119.59 Q132.478 1116.83 130.533 1115.1 Q128.612 1113.36 125.51 1113.36 Q123.311 1113.36 120.857 1114.13 Q118.427 1114.89 115.649 1116.44 L115.649 1111.72 Q118.473 1110.58 120.927 1110.01 Q123.38 1109.43 125.418 1109.43 Q130.788 1109.43 133.982 1112.11 Q137.177 1114.8 137.177 1119.29 Q137.177 1121.42 136.367 1123.34 Q135.579 1125.24 133.473 1127.83 Q132.894 1128.5 129.792 1131.72 Q126.691 1134.91 121.043 1140.68 Z" fill="#000000" fill-rule="evenodd" fill-opacity="1" /><path clip-path="url(#clip720)" d="M157.177 1113.13 Q153.566 1113.13 151.737 1116.7 Q149.931 1120.24 149.931 1127.37 Q149.931 1134.47 151.737 1138.04 Q153.566 1141.58 157.177 1141.58 Q160.811 1141.58 162.616 1138.04 Q164.445 1134.47 164.445 1127.37 Q164.445 1120.24 162.616 1116.7 Q160.811 1113.13 157.177 1113.13 M157.177 1109.43 Q162.987 1109.43 166.042 1114.03 Q169.121 1118.62 169.121 1127.37 Q169.121 1136.09 166.042 1140.7 Q162.987 1145.28 157.177 1145.28 Q151.366 1145.28 148.288 1140.7 Q145.232 1136.09 145.232 1127.37 Q145.232 1118.62 148.288 1114.03 Q151.366 1109.43 157.177 1109.43 Z" fill="#000000" fill-rule="evenodd" fill-opacity="1" /><path clip-path="url(#clip720)" d="M187.338 1113.13 Q183.727 1113.13 181.899 1116.7 Q180.093 1120.24 180.093 1127.37 Q180.093 1134.47 181.899 1138.04 Q183.727 1141.58 187.338 1141.58 Q190.973 1141.58 192.778 1138.04 Q194.607 1134.47 194.607 1127.37 Q194.607 1120.24 192.778 1116.7 Q190.973 1113.13 187.338 1113.13 M187.338 1109.43 Q193.149 1109.43 196.204 1114.03 Q199.283 1118.62 199.283 1127.37 Q199.283 1136.09 196.204 1140.7 Q193.149 1145.28 187.338 1145.28 Q181.528 1145.28 178.45 1140.7 Q175.394 1136.09 175.394 1127.37 Q175.394 1118.62 178.45 1114.03 Q181.528 1109.43 187.338 1109.43 Z" fill="#000000" fill-rule="evenodd" fill-opacity="1" /><path clip-path="url(#clip720)" d="M129.862 843.698 L118.056 862.147 L129.862 862.147 L129.862 843.698 M128.635 839.624 L134.515 839.624 L134.515 862.147 L139.445 862.147 L139.445 866.036 L134.515 866.036 L134.515 874.184 L129.862 874.184 L129.862 866.036 L114.26 866.036 L114.26 861.522 L128.635 839.624 Z" fill="#000000" fill-rule="evenodd" fill-opacity="1" /><path clip-path="url(#clip720)" d="M157.177 842.703 Q153.566 842.703 151.737 846.268 Q149.931 849.81 149.931 856.939 Q149.931 864.046 151.737 867.61 Q153.566 871.152 157.177 871.152 Q160.811 871.152 162.616 867.61 Q164.445 864.046 164.445 856.939 Q164.445 849.81 162.616 846.268 Q160.811 842.703 157.177 842.703 M157.177 838.999 Q162.987 838.999 166.042 843.606 Q169.121 848.189 169.121 856.939 Q169.121 865.666 166.042 870.272 Q162.987 874.856 157.177 874.856 Q151.366 874.856 148.288 870.272 Q145.232 865.666 145.232 856.939 Q145.232 848.189 148.288 843.606 Q151.366 838.999 157.177 838.999 Z" fill="#000000" fill-rule="evenodd" fill-opacity="1" /><path clip-path="url(#clip720)" d="M187.338 842.703 Q183.727 842.703 181.899 846.268 Q180.093 849.81 180.093 856.939 Q180.093 864.046 181.899 867.61 Q183.727 871.152 187.338 871.152 Q190.973 871.152 192.778 867.61 Q194.607 864.046 194.607 856.939 Q194.607 849.81 192.778 846.268 Q190.973 842.703 187.338 842.703 M187.338 838.999 Q193.149 838.999 196.204 843.606 Q199.283 848.189 199.283 856.939 Q199.283 865.666 196.204 870.272 Q193.149 874.856 187.338 874.856 Q181.528 874.856 178.45 870.272 Q175.394 865.666 175.394 856.939 Q175.394 848.189 178.45 843.606 Q181.528 838.999 187.338 838.999 Z" fill="#000000" fill-rule="evenodd" fill-opacity="1" /><path clip-path="url(#clip720)" d="M127.593 584.613 Q124.445 584.613 122.593 586.766 Q120.765 588.919 120.765 592.669 Q120.765 596.396 122.593 598.572 Q124.445 600.724 127.593 600.724 Q130.742 600.724 132.57 598.572 Q134.422 596.396 134.422 592.669 Q134.422 588.919 132.57 586.766 Q130.742 584.613 127.593 584.613 M136.876 569.961 L136.876 574.22 Q135.117 573.387 133.311 572.947 Q131.529 572.507 129.769 572.507 Q125.14 572.507 122.686 575.632 Q120.255 578.757 119.908 585.076 Q121.274 583.062 123.334 581.998 Q125.394 580.91 127.871 580.91 Q133.08 580.91 136.089 584.081 Q139.121 587.229 139.121 592.669 Q139.121 597.993 135.973 601.21 Q132.825 604.428 127.593 604.428 Q121.598 604.428 118.427 599.845 Q115.256 595.238 115.256 586.511 Q115.256 578.317 119.144 573.456 Q123.033 568.572 129.584 568.572 Q131.343 568.572 133.126 568.919 Q134.931 569.266 136.876 569.961 Z" fill="#000000" fill-rule="evenodd" fill-opacity="1" /><path clip-path="url(#clip720)" d="M157.177 572.275 Q153.566 572.275 151.737 575.84 Q149.931 579.382 149.931 586.511 Q149.931 593.618 151.737 597.183 Q153.566 600.724 157.177 600.724 Q160.811 600.724 162.616 597.183 Q164.445 593.618 164.445 586.511 Q164.445 579.382 162.616 575.84 Q160.811 572.275 157.177 572.275 M157.177 568.572 Q162.987 568.572 166.042 573.178 Q169.121 577.762 169.121 586.511 Q169.121 595.238 166.042 599.845 Q162.987 604.428 157.177 604.428 Q151.366 604.428 148.288 599.845 Q145.232 595.238 145.232 586.511 Q145.232 577.762 148.288 573.178 Q151.366 568.572 157.177 568.572 Z" fill="#000000" fill-rule="evenodd" fill-opacity="1" /><path clip-path="url(#clip720)" d="M187.338 572.275 Q183.727 572.275 181.899 575.84 Q180.093 579.382 180.093 586.511 Q180.093 593.618 181.899 597.183 Q183.727 600.724 187.338 600.724 Q190.973 600.724 192.778 597.183 Q194.607 593.618 194.607 586.511 Q194.607 579.382 192.778 575.84 Q190.973 572.275 187.338 572.275 M187.338 568.572 Q193.149 568.572 196.204 573.178 Q199.283 577.762 199.283 586.511 Q199.283 595.238 196.204 599.845 Q193.149 604.428 187.338 604.428 Q181.528 604.428 178.45 599.845 Q175.394 595.238 175.394 586.511 Q175.394 577.762 178.45 573.178 Q181.528 568.572 187.338 568.572 Z" fill="#000000" fill-rule="evenodd" fill-opacity="1" /><path clip-path="url(#clip720)" d="M127.015 316.917 Q123.681 316.917 121.76 318.7 Q119.862 320.482 119.862 323.607 Q119.862 326.732 121.76 328.514 Q123.681 330.297 127.015 330.297 Q130.348 330.297 132.269 328.514 Q134.191 326.709 134.191 323.607 Q134.191 320.482 132.269 318.7 Q130.371 316.917 127.015 316.917 M122.339 314.926 Q119.33 314.186 117.64 312.126 Q115.973 310.065 115.973 307.102 Q115.973 302.959 118.913 300.552 Q121.876 298.144 127.015 298.144 Q132.177 298.144 135.117 300.552 Q138.056 302.959 138.056 307.102 Q138.056 310.065 136.367 312.126 Q134.7 314.186 131.714 314.926 Q135.093 315.714 136.968 318.005 Q138.867 320.297 138.867 323.607 Q138.867 328.63 135.788 331.315 Q132.732 334 127.015 334 Q121.297 334 118.218 331.315 Q115.163 328.63 115.163 323.607 Q115.163 320.297 117.061 318.005 Q118.959 315.714 122.339 314.926 M120.626 307.542 Q120.626 310.227 122.293 311.732 Q123.982 313.237 127.015 313.237 Q130.024 313.237 131.714 311.732 Q133.427 310.227 133.427 307.542 Q133.427 304.857 131.714 303.352 Q130.024 301.848 127.015 301.848 Q123.982 301.848 122.293 303.352 Q120.626 304.857 120.626 307.542 Z" fill="#000000" fill-rule="evenodd" fill-opacity="1" /><path clip-path="url(#clip720)" d="M157.177 301.848 Q153.566 301.848 151.737 305.413 Q149.931 308.954 149.931 316.084 Q149.931 323.19 151.737 326.755 Q153.566 330.297 157.177 330.297 Q160.811 330.297 162.616 326.755 Q164.445 323.19 164.445 316.084 Q164.445 308.954 162.616 305.413 Q160.811 301.848 157.177 301.848 M157.177 298.144 Q162.987 298.144 166.042 302.751 Q169.121 307.334 169.121 316.084 Q169.121 324.811 166.042 329.417 Q162.987 334 157.177 334 Q151.366 334 148.288 329.417 Q145.232 324.811 145.232 316.084 Q145.232 307.334 148.288 302.751 Q151.366 298.144 157.177 298.144 Z" fill="#000000" fill-rule="evenodd" fill-opacity="1" /><path clip-path="url(#clip720)" d="M187.338 301.848 Q183.727 301.848 181.899 305.413 Q180.093 308.954 180.093 316.084 Q180.093 323.19 181.899 326.755 Q183.727 330.297 187.338 330.297 Q190.973 330.297 192.778 326.755 Q194.607 323.19 194.607 316.084 Q194.607 308.954 192.778 305.413 Q190.973 301.848 187.338 301.848 M187.338 298.144 Q193.149 298.144 196.204 302.751 Q199.283 307.334 199.283 316.084 Q199.283 324.811 196.204 329.417 Q193.149 334 187.338 334 Q181.528 334 178.45 329.417 Q175.394 324.811 175.394 316.084 Q175.394 307.334 178.45 302.751 Q181.528 298.144 187.338 298.144 Z" fill="#000000" fill-rule="evenodd" fill-opacity="1" /><path clip-path="url(#clip720)" d="M28.3562 931.196 L28.3562 925.34 L64.0042 925.34 L64.0042 931.196 L28.3562 931.196 M14.479 931.196 L14.479 925.34 L21.895 925.34 L21.895 931.196 L14.479 931.196 Z" fill="#000000" fill-rule="evenodd" fill-opacity="1" /><path clip-path="url(#clip720)" d="M42.4881 883.453 L64.0042 883.453 L64.0042 889.31 L42.679 889.31 Q37.6183 889.31 35.1038 891.283 Q32.5894 893.257 32.5894 897.203 Q32.5894 901.946 35.6131 904.683 Q38.6368 907.42 43.8567 907.42 L64.0042 907.42 L64.0042 913.309 L28.3562 913.309 L28.3562 907.42 L33.8944 907.42 Q30.6797 905.32 29.0883 902.487 Q27.4968 899.622 27.4968 895.898 Q27.4968 889.755 31.3163 886.604 Q35.1038 883.453 42.4881 883.453 Z" fill="#000000" fill-rule="evenodd" fill-opacity="1" /><path clip-path="url(#clip720)" d="M14.479 853.726 L19.3487 853.726 L19.3487 859.327 Q19.3487 862.478 20.6219 863.72 Q21.895 864.929 25.2052 864.929 L28.3562 864.929 L28.3562 855.285 L32.9077 855.285 L32.9077 864.929 L64.0042 864.929 L64.0042 870.817 L32.9077 870.817 L32.9077 876.419 L28.3562 876.419 L28.3562 870.817 L25.8736 870.817 Q19.9216 870.817 17.2162 868.048 Q14.479 865.279 14.479 859.264 L14.479 853.726 Z" fill="#000000" fill-rule="evenodd" fill-opacity="1" /><path clip-path="url(#clip720)" d="M44.7161 818.332 L47.5806 818.332 L47.5806 845.259 Q53.6281 844.877 56.8109 841.631 Q59.9619 838.352 59.9619 832.528 Q59.9619 829.154 59.1344 826.003 Q58.3069 822.82 56.6518 819.701 L62.1899 819.701 Q63.5267 822.852 64.227 826.162 Q64.9272 829.472 64.9272 832.878 Q64.9272 841.408 59.9619 846.405 Q54.9967 851.37 46.5303 851.37 Q37.7774 851.37 32.6531 846.66 Q27.4968 841.917 27.4968 833.896 Q27.4968 826.703 32.1438 822.534 Q36.7589 818.332 44.7161 818.332 M42.9973 824.189 Q38.1912 824.252 35.3266 826.894 Q32.4621 829.504 32.4621 833.833 Q32.4621 838.734 35.2312 841.694 Q38.0002 844.623 43.0292 845.068 L42.9973 824.189 Z" fill="#000000" fill-rule="evenodd" fill-opacity="1" /><path clip-path="url(#clip720)" d="M29.7248 783.066 L35.1993 783.066 Q33.8307 785.549 33.1623 788.063 Q32.4621 790.546 32.4621 793.092 Q32.4621 798.789 36.0905 801.94 Q39.6872 805.092 46.212 805.092 Q52.7369 805.092 56.3653 801.94 Q59.9619 798.789 59.9619 793.092 Q59.9619 790.546 59.2935 788.063 Q58.5933 785.549 57.2247 783.066 L62.6355 783.066 Q63.7814 785.517 64.3543 788.159 Q64.9272 790.769 64.9272 793.729 Q64.9272 801.781 59.8664 806.524 Q54.8057 811.266 46.212 811.266 Q37.491 811.266 32.4939 806.492 Q27.4968 801.686 27.4968 793.347 Q27.4968 790.641 28.0697 788.063 Q28.6108 785.485 29.7248 783.066 Z" fill="#000000" fill-rule="evenodd" fill-opacity="1" /><path clip-path="url(#clip720)" d="M18.2347 767.088 L28.3562 767.088 L28.3562 755.025 L32.9077 755.025 L32.9077 767.088 L52.2594 767.088 Q56.6199 767.088 57.8613 765.911 Q59.1026 764.701 59.1026 761.041 L59.1026 755.025 L64.0042 755.025 L64.0042 761.041 Q64.0042 767.82 61.4897 770.398 Q58.9434 772.977 52.2594 772.977 L32.9077 772.977 L32.9077 777.273 L28.3562 777.273 L28.3562 772.977 L18.2347 772.977 L18.2347 767.088 Z" fill="#000000" fill-rule="evenodd" fill-opacity="1" /><path clip-path="url(#clip720)" d="M44.7161 716.831 L47.5806 716.831 L47.5806 743.758 Q53.6281 743.376 56.8109 740.129 Q59.9619 736.851 59.9619 731.027 Q59.9619 727.653 59.1344 724.502 Q58.3069 721.319 56.6518 718.2 L62.1899 718.2 Q63.5267 721.351 64.227 724.661 Q64.9272 727.971 64.9272 731.377 Q64.9272 739.907 59.9619 744.904 Q54.9967 749.869 46.5303 749.869 Q37.7774 749.869 32.6531 745.158 Q27.4968 740.416 27.4968 732.395 Q27.4968 725.202 32.1438 721.032 Q36.7589 716.831 44.7161 716.831 M42.9973 722.687 Q38.1912 722.751 35.3266 725.393 Q32.4621 728.003 32.4621 732.331 Q32.4621 737.233 35.2312 740.193 Q38.0002 743.121 43.0292 743.567 L42.9973 722.687 Z" fill="#000000" fill-rule="evenodd" fill-opacity="1" /><path clip-path="url(#clip720)" d="M33.7671 683.761 L14.479 683.761 L14.479 677.905 L64.0042 677.905 L64.0042 683.761 L58.657 683.761 Q61.8398 685.607 63.3994 688.44 Q64.9272 691.241 64.9272 695.188 Q64.9272 701.649 59.771 705.723 Q54.6147 709.765 46.212 709.765 Q37.8093 709.765 32.6531 705.723 Q27.4968 701.649 27.4968 695.188 Q27.4968 691.241 29.0564 688.44 Q30.5842 685.607 33.7671 683.761 M46.212 703.718 Q52.6732 703.718 56.3653 701.076 Q60.0256 698.402 60.0256 693.755 Q60.0256 689.108 56.3653 686.435 Q52.6732 683.761 46.212 683.761 Q39.7508 683.761 36.0905 686.435 Q32.3984 689.108 32.3984 693.755 Q32.3984 698.402 36.0905 701.076 Q39.7508 703.718 46.212 703.718 Z" fill="#000000" fill-rule="evenodd" fill-opacity="1" /><path clip-path="url(#clip720)" d="M32.4621 631.308 Q32.4621 636.018 36.1542 638.756 Q39.8145 641.493 46.212 641.493 Q52.6095 641.493 56.3017 638.787 Q59.9619 636.05 59.9619 631.308 Q59.9619 626.629 56.2698 623.892 Q52.5777 621.154 46.212 621.154 Q39.8781 621.154 36.186 623.892 Q32.4621 626.629 32.4621 631.308 M27.4968 631.308 Q27.4968 623.669 32.4621 619.308 Q37.4273 614.948 46.212 614.948 Q54.9649 614.948 59.9619 619.308 Q64.9272 623.669 64.9272 631.308 Q64.9272 638.978 59.9619 643.339 Q54.9649 647.668 46.212 647.668 Q37.4273 647.668 32.4621 643.339 Q27.4968 638.978 27.4968 631.308 Z" fill="#000000" fill-rule="evenodd" fill-opacity="1" /><path clip-path="url(#clip720)" d="M46.212 579.65 Q39.7508 579.65 36.0905 582.324 Q32.3984 584.965 32.3984 589.612 Q32.3984 594.259 36.0905 596.933 Q39.7508 599.575 46.212 599.575 Q52.6732 599.575 56.3653 596.933 Q60.0256 594.259 60.0256 589.612 Q60.0256 584.965 56.3653 582.324 Q52.6732 579.65 46.212 579.65 M33.7671 599.575 Q30.5842 597.729 29.0564 594.928 Q27.4968 592.095 27.4968 588.18 Q27.4968 581.687 32.6531 577.645 Q37.8093 573.571 46.212 573.571 Q54.6147 573.571 59.771 577.645 Q64.9272 581.687 64.9272 588.18 Q64.9272 592.095 63.3994 594.928 Q61.8398 597.729 58.657 599.575 L64.0042 599.575 L64.0042 605.463 L14.479 605.463 L14.479 599.575 L33.7671 599.575 Z" fill="#000000" fill-rule="evenodd" fill-opacity="1" /><path clip-path="url(#clip720)" d="M29.4065 541.137 L34.9447 541.137 Q33.6716 543.62 33.035 546.294 Q32.3984 548.967 32.3984 551.832 Q32.3984 556.192 33.7352 558.389 Q35.072 560.553 37.7456 560.553 Q39.7826 560.553 40.9603 558.993 Q42.1061 557.434 43.1565 552.723 L43.6021 550.718 Q44.9389 544.479 47.3897 541.87 Q49.8086 539.228 54.1691 539.228 Q59.1344 539.228 62.0308 543.175 Q64.9272 547.089 64.9272 553.964 Q64.9272 556.829 64.3543 559.948 Q63.8132 563.036 62.6992 566.473 L56.6518 566.473 Q58.3387 563.226 59.198 560.075 Q60.0256 556.924 60.0256 553.837 Q60.0256 549.699 58.6251 547.471 Q57.1929 545.243 54.6147 545.243 Q52.2276 545.243 50.9545 546.867 Q49.6813 548.458 48.5037 553.901 L48.0262 555.938 Q46.8804 561.38 44.5251 563.799 Q42.138 566.218 38.0002 566.218 Q32.9713 566.218 30.2341 562.654 Q27.4968 559.089 27.4968 552.532 Q27.4968 549.286 27.9743 546.421 Q28.4517 543.556 29.4065 541.137 Z" fill="#000000" fill-rule="evenodd" fill-opacity="1" /><polyline clip-path="url(#clip722)" style="stroke:#009af9; stroke-linecap:butt; stroke-linejoin:round; stroke-width:4; stroke-opacity:1; fill:none" points="
  295.211,1384.24 335.979,1377.48 376.747,1370.72 417.514,1363.96 458.282,1357.2 499.05,1350.43 539.817,1343.67 580.585,1336.91 621.353,1330.15 662.12,1318.88 
  702.888,1307.62 743.656,1296.35 784.423,1285.08 825.191,1273.81 865.959,1262.55 906.726,1252.03 947.494,1241.51 988.262,1231 1029.03,1220.48 1069.8,1209.96 
  1110.56,1199.45 1151.33,1188.93 1192.1,1178.41 1232.87,1167.9 1273.64,1131.2 1314.4,1094.49 1355.17,1057.79 1395.94,1021.09 1436.71,984.392 1477.47,947.691 
  1518.24,910.99 1559.01,786.593 1599.78,662.197 1640.54,537.8 1681.31,413.403 1722.08,289.006 1762.85,261.964 1803.62,234.921 1844.38,207.878 1885.15,180.835 
  1925.92,153.793 1966.69,126.75 2007.45,121.679 2048.22,116.609 2088.99,111.538 2129.76,106.468 2170.52,101.397 2211.29,96.3267 2252.06,91.2562 2292.83,86.1857 
  
  "/>
</svg>
